<svg width="24" height="24" viewBox="0 0 24 24" fill="none" xmlns="http://www.w3.org/2000/svg">
<path fill-rule="evenodd" clip-rule="evenodd" d="M13.75 5C14.1642 5 14.5 5.33579 14.5 5.75V7H20.75C21.1642 7 21.5 7.33579 21.5 7.75C21.5 8.16421 21.1642 8.5 20.75 8.5H14.5V9.75C14.5 10.1642 14.1642 10.5 13.75 10.5C13.3358 10.5 13 10.1642 13 9.75V7.75V5.75C13 5.33579 13.3358 5 13.75 5ZM2.75 7C2.33579 7 2 7.33579 2 7.75C2 8.16421 2.33579 8.5 2.75 8.5H9.75C10.1642 8.5 10.5 8.16421 10.5 7.75C10.5 7.33579 10.1642 7 9.75 7H2.75ZM11 15.75C11 15.3358 11.3358 15 11.75 15H20.75C21.1642 15 21.5 15.3358 21.5 15.75C21.5 16.1642 21.1642 16.5 20.75 16.5H11.75C11.3358 16.5 11 16.1642 11 15.75ZM2.75 15C2.33579 15 2 15.3358 2 15.75C2 16.1642 2.33579 16.5 2.75 16.5H7V17.75C7 18.1642 7.33579 18.5 7.75 18.5C8.16421 18.5 8.5 18.1642 8.5 17.75V15.75V13.75C8.5 13.3358 8.16421 13 7.75 13C7.33579 13 7 13.3358 7 13.75V15H2.75Z" fill="#D0D5DD"/>
</svg>
