<svg width="268" height="58" viewBox="0 0 268 58" fill="none" xmlns="http://www.w3.org/2000/svg">
<rect width="25" height="25" rx="2" fill="#2563EB"/>
<rect y="33" width="25" height="25" rx="2" fill="#2563EB"/>
<rect x="33" y="16.5" width="25" height="25" rx="2" fill="#2563EB"/>
<path d="M82.784 13.506C83.064 12.8713 83.4747 12.372 84.016 12.008C84.5667 11.6347 85.1827 11.448 85.864 11.448C86.704 11.448 87.4087 11.7093 87.978 12.232C88.5473 12.7547 88.832 13.4033 88.832 14.178C88.832 14.654 88.72 15.088 88.496 15.48C88.272 15.872 87.964 16.18 87.572 16.404C88.048 16.6467 88.4213 16.992 88.692 17.44C88.972 17.888 89.112 18.378 89.112 18.91C89.112 19.722 88.7993 20.3987 88.174 20.94C87.558 21.4813 86.788 21.752 85.864 21.752C85.1267 21.752 84.4593 21.5653 83.862 21.192C83.2647 20.8093 82.8213 20.2867 82.532 19.624L83.568 19.092C83.764 19.5773 84.0673 19.96 84.478 20.24C84.8887 20.52 85.3507 20.66 85.864 20.66C86.4707 20.66 86.9747 20.4827 87.376 20.128C87.7867 19.7733 87.992 19.33 87.992 18.798C87.992 18.2847 87.81 17.8553 87.446 17.51C87.082 17.1647 86.6293 16.992 86.088 16.992H84.856V15.928H86.088C86.5547 15.928 86.942 15.774 87.25 15.466C87.558 15.1487 87.712 14.7567 87.712 14.29C87.712 13.7953 87.53 13.38 87.166 13.044C86.8113 12.708 86.3633 12.54 85.822 12.54C85.374 12.54 84.9727 12.666 84.618 12.918C84.2633 13.17 83.9927 13.52 83.806 13.968L82.784 13.506ZM92.0786 17.79H97.8606V18.854H92.0786V17.79ZM91.3506 21.5H90.0766L94.2626 11.7H95.7186L99.9046 21.5H98.6306L94.9906 12.876L91.3506 21.5ZM105.794 12.792H102.252V16.054H105.892C106.359 16.054 106.751 15.8813 107.068 15.536C107.386 15.1907 107.544 14.766 107.544 14.262C107.544 13.8327 107.376 13.4827 107.04 13.212C106.714 12.932 106.298 12.792 105.794 12.792ZM105.892 17.118H102.252V20.408H105.934C106.429 20.408 106.844 20.2633 107.18 19.974C107.516 19.6847 107.684 19.3253 107.684 18.896C107.684 18.3827 107.512 17.958 107.166 17.622C106.83 17.286 106.406 17.118 105.892 17.118ZM106.088 21.5H101.132V11.7H105.948C106.723 11.7 107.367 11.9333 107.88 12.4C108.403 12.8667 108.664 13.4547 108.664 14.164C108.664 14.6773 108.538 15.144 108.286 15.564C108.044 15.984 107.712 16.3107 107.292 16.544C107.759 16.7773 108.128 17.1087 108.398 17.538C108.669 17.9673 108.804 18.448 108.804 18.98C108.804 19.6987 108.543 20.3007 108.02 20.786C107.498 21.262 106.854 21.5 106.088 21.5ZM111.078 16.558C111.078 17.7527 111.451 18.7327 112.198 19.498C112.944 20.254 113.859 20.632 114.942 20.632C116.024 20.632 116.939 20.254 117.686 19.498C118.432 18.7327 118.806 17.7527 118.806 16.558C118.806 15.3913 118.432 14.43 117.686 13.674C116.939 12.918 116.024 12.54 114.942 12.54C113.859 12.54 112.944 12.918 112.198 13.674C111.451 14.43 111.078 15.3913 111.078 16.558ZM109.958 16.558C109.958 15.8207 110.088 15.13 110.35 14.486C110.611 13.842 110.966 13.3007 111.414 12.862C111.862 12.414 112.389 12.064 112.996 11.812C113.612 11.5507 114.26 11.42 114.942 11.42C115.623 11.42 116.267 11.5507 116.874 11.812C117.49 12.064 118.022 12.414 118.47 12.862C118.918 13.3007 119.272 13.842 119.534 14.486C119.795 15.13 119.926 15.8207 119.926 16.558C119.926 17.3047 119.795 18.0047 119.534 18.658C119.272 19.302 118.918 19.8527 118.47 20.31C118.022 20.758 117.49 21.1127 116.874 21.374C116.267 21.626 115.623 21.752 114.942 21.752C114.26 21.752 113.612 21.626 112.996 21.374C112.389 21.1127 111.862 20.758 111.414 20.31C110.966 19.8527 110.611 19.302 110.35 18.658C110.088 18.0047 109.958 17.3047 109.958 16.558ZM120.865 20.436H130.693V23.124H129.573V21.5H121.985V23.124H120.865V20.436ZM121.341 20.436C122.004 20.436 122.512 20.226 122.867 19.806C123.231 19.386 123.413 18.854 123.413 18.21V11.7H129.643V21.486H128.523V12.792H124.533V18.406C124.533 19.1713 124.248 19.8387 123.679 20.408C123.11 20.968 122.377 21.248 121.481 21.248H121.075L120.865 20.436H121.341ZM132.748 16.558C132.748 17.7527 133.121 18.7327 133.868 19.498C134.614 20.254 135.529 20.632 136.612 20.632C137.694 20.632 138.609 20.254 139.356 19.498C140.102 18.7327 140.476 17.7527 140.476 16.558C140.476 15.3913 140.102 14.43 139.356 13.674C138.609 12.918 137.694 12.54 136.612 12.54C135.529 12.54 134.614 12.918 133.868 13.674C133.121 14.43 132.748 15.3913 132.748 16.558ZM131.628 16.558C131.628 15.8207 131.758 15.13 132.02 14.486C132.281 13.842 132.636 13.3007 133.084 12.862C133.532 12.414 134.059 12.064 134.666 11.812C135.282 11.5507 135.93 11.42 136.612 11.42C137.293 11.42 137.937 11.5507 138.544 11.812C139.16 12.064 139.692 12.414 140.14 12.862C140.588 13.3007 140.942 13.842 141.204 14.486C141.465 15.13 141.596 15.8207 141.596 16.558C141.596 17.3047 141.465 18.0047 141.204 18.658C140.942 19.302 140.588 19.8527 140.14 20.31C139.692 20.758 139.16 21.1127 138.544 21.374C137.937 21.626 137.293 21.752 136.612 21.752C135.93 21.752 135.282 21.626 134.666 21.374C134.059 21.1127 133.532 20.758 133.084 20.31C132.636 19.8527 132.281 19.302 132.02 18.658C131.758 18.0047 131.628 17.3047 131.628 16.558ZM147.603 12.792H144.061V16.054H147.701C148.168 16.054 148.56 15.8813 148.877 15.536C149.194 15.1907 149.353 14.766 149.353 14.262C149.353 13.8327 149.185 13.4827 148.849 13.212C148.522 12.932 148.107 12.792 147.603 12.792ZM147.701 17.118H144.061V20.408H147.743C148.238 20.408 148.653 20.2633 148.989 19.974C149.325 19.6847 149.493 19.3253 149.493 18.896C149.493 18.3827 149.32 17.958 148.975 17.622C148.639 17.286 148.214 17.118 147.701 17.118ZM147.897 21.5H142.941V11.7H147.757C148.532 11.7 149.176 11.9333 149.689 12.4C150.212 12.8667 150.473 13.4547 150.473 14.164C150.473 14.6773 150.347 15.144 150.095 15.564C149.852 15.984 149.521 16.3107 149.101 16.544C149.568 16.7773 149.936 17.1087 150.207 17.538C150.478 17.9673 150.613 18.448 150.613 18.98C150.613 19.6987 150.352 20.3007 149.829 20.786C149.306 21.262 148.662 21.5 147.897 21.5ZM152.424 19.246C151.976 18.4527 151.752 17.566 151.752 16.586C151.762 15.606 151.99 14.7193 152.438 13.926C152.886 13.1327 153.493 12.5167 154.258 12.078C155.033 11.6393 155.882 11.42 156.806 11.42C157.842 11.42 158.78 11.6953 159.62 12.246C160.46 12.7873 161.1 13.5293 161.538 14.472L160.46 14.892C160.124 14.164 159.63 13.59 158.976 13.17C158.323 12.75 157.6 12.54 156.806 12.54C155.705 12.54 154.776 12.9227 154.02 13.688C153.264 14.444 152.886 15.41 152.886 16.586C152.886 17.7527 153.264 18.7187 154.02 19.484C154.776 20.2493 155.705 20.632 156.806 20.632C157.618 20.632 158.356 20.4127 159.018 19.974C159.69 19.526 160.19 18.9193 160.516 18.154L161.594 18.56C161.184 19.54 160.544 20.3193 159.676 20.898C158.818 21.4673 157.861 21.752 156.806 21.752C155.882 21.752 155.033 21.5327 154.258 21.094C153.493 20.6553 152.882 20.0393 152.424 19.246ZM162.943 21.5V11.7H164.063V16.068H164.539L168.795 11.7H170.293L165.533 16.628L170.293 21.5H168.795L164.539 17.216H164.063V21.5H162.943ZM179.509 21.5H178.389V13.324L172.859 21.5H171.529V11.7H172.649V19.778L178.165 11.7H179.509V21.5ZM185.159 10.51C184.515 10.51 183.969 10.3 183.521 9.88C183.073 9.45067 182.849 8.93733 182.849 8.34H183.787C183.787 8.71333 183.917 9.02133 184.179 9.264C184.44 9.50667 184.771 9.628 185.173 9.628C185.583 9.628 185.929 9.502 186.209 9.25C186.498 8.998 186.643 8.69467 186.643 8.34H187.581C187.581 8.91867 187.338 9.42733 186.853 9.866C186.377 10.2953 185.812 10.51 185.159 10.51ZM189.093 21.5H187.973V13.324L182.443 21.5H181.113V11.7H182.233V19.778L187.749 11.7H189.093V21.5ZM194.064 20.436H203.892V23.124H202.772V21.5H195.184V23.124H194.064V20.436ZM194.54 20.436C195.203 20.436 195.712 20.226 196.066 19.806C196.43 19.386 196.612 18.854 196.612 18.21V11.7H202.842V21.486H201.722V12.792H197.732V18.406C197.732 19.1713 197.448 19.8387 196.878 20.408C196.309 20.968 195.576 21.248 194.68 21.248H194.274L194.064 20.436H194.54ZM206.227 16.04H211.267V17.132H206.227V20.408H211.603V21.5H205.107V11.7H211.603V12.792H206.227V16.04ZM212.955 21.5V11.7H214.075V16.04H219.815V11.7H220.935V21.5H219.815V17.132H214.075V21.5H212.955ZM230.519 21.5H229.399V13.324L223.869 21.5H222.539V11.7H223.659V19.778L229.175 11.7H230.519V21.5ZM232.501 19.246C232.053 18.4527 231.829 17.566 231.829 16.586C231.838 15.606 232.067 14.7193 232.515 13.926C232.963 13.1327 233.569 12.5167 234.335 12.078C235.109 11.6393 235.959 11.42 236.883 11.42C237.919 11.42 238.857 11.6953 239.697 12.246C240.537 12.7873 241.176 13.5293 241.615 14.472L240.537 14.892C240.201 14.164 239.706 13.59 239.053 13.17C238.399 12.75 237.676 12.54 236.883 12.54C235.781 12.54 234.853 12.9227 234.097 13.688C233.341 14.444 232.963 15.41 232.963 16.586C232.963 17.7527 233.341 18.7187 234.097 19.484C234.853 20.2493 235.781 20.632 236.883 20.632C237.695 20.632 238.432 20.4127 239.095 19.974C239.767 19.526 240.266 18.9193 240.593 18.154L241.671 18.56C241.26 19.54 240.621 20.3193 239.753 20.898C238.894 21.4673 237.937 21.752 236.883 21.752C235.959 21.752 235.109 21.5327 234.335 21.094C233.569 20.6553 232.958 20.0393 232.501 19.246Z" fill="white"/>
<line x1="82" y1="30" x2="268" y2="30" stroke="#2563EB"/>
<path d="M87.532 47.152C87.764 46.92 87.88 46.632 87.88 46.288C87.88 45.944 87.764 45.656 87.532 45.424C87.3 45.192 87.012 45.076 86.668 45.076C86.324 45.076 86.036 45.192 85.804 45.424C85.572 45.656 85.456 45.944 85.456 46.288C85.456 46.632 85.572 46.92 85.804 47.152C86.036 47.384 86.324 47.5 86.668 47.5C87.012 47.5 87.3 47.384 87.532 47.152ZM87.712 44.836C88.048 45.22 88.216 45.704 88.216 46.288C88.216 46.872 88.048 47.356 87.712 47.74C87.376 48.124 86.956 48.316 86.452 48.316C85.932 48.316 85.496 48.12 85.144 47.728C84.792 47.336 84.616 46.856 84.616 46.288C84.616 45.72 84.792 45.24 85.144 44.848C85.496 44.456 85.932 44.26 86.452 44.26C86.956 44.26 87.376 44.452 87.712 44.836ZM91.12 46.036C91.12 46.74 90.96 47.3 90.64 47.716C90.32 48.132 89.892 48.34 89.356 48.34C88.956 48.34 88.608 48.236 88.312 48.028C88.024 47.812 87.88 47.556 87.88 47.26V44.5H88.72V46.9C88.72 47.124 88.776 47.296 88.888 47.416C89 47.528 89.156 47.584 89.356 47.584C89.652 47.584 89.88 47.46 90.04 47.212C90.2 46.964 90.28 46.612 90.28 46.156C90.28 45.172 89.944 44.348 89.272 43.684C88.6 43.012 87.768 42.676 86.776 42.676C85.768 42.676 84.924 43.02 84.244 43.708C83.564 44.396 83.224 45.26 83.224 46.3C83.224 47.332 83.564 48.196 84.244 48.892C84.932 49.588 85.792 49.936 86.824 49.936C87.648 49.936 88.396 49.696 89.068 49.216L89.488 49.9C88.696 50.468 87.796 50.752 86.788 50.752C85.964 50.744 85.216 50.548 84.544 50.164C83.872 49.78 83.344 49.248 82.96 48.568C82.576 47.88 82.384 47.12 82.384 46.288C82.384 45.456 82.576 44.7 82.96 44.02C83.344 43.332 83.872 42.796 84.544 42.412C85.216 42.028 85.96 41.836 86.776 41.836C87.576 41.836 88.308 42.02 88.972 42.388C89.644 42.756 90.168 43.264 90.544 43.912C90.928 44.552 91.12 45.26 91.12 46.036ZM93.8916 43.804C93.2516 44.452 92.9316 45.28 92.9316 46.288C92.9316 47.296 93.2516 48.128 93.8916 48.784C94.5316 49.432 95.3156 49.756 96.2436 49.756C97.1076 49.756 97.8516 49.488 98.4756 48.952C99.0996 48.408 99.4436 47.704 99.5076 46.84H95.9316V45.94H100.504C100.512 46.06 100.516 46.232 100.516 46.456C100.516 47.264 100.324 47.996 99.9396 48.652C99.5556 49.3 99.0396 49.808 98.3916 50.176C97.7436 50.536 97.0276 50.716 96.2436 50.716C95.6596 50.716 95.1036 50.608 94.5756 50.392C94.0556 50.168 93.6036 49.864 93.2196 49.48C92.8356 49.096 92.5316 48.628 92.3076 48.076C92.0836 47.516 91.9716 46.92 91.9716 46.288C91.9716 45.656 92.0836 45.064 92.3076 44.512C92.5316 43.952 92.8356 43.48 93.2196 43.096C93.6036 42.712 94.0556 42.412 94.5756 42.196C95.1036 41.972 95.6596 41.86 96.2436 41.86C97.0756 41.86 97.8316 42.084 98.5116 42.532C99.1996 42.98 99.7196 43.588 100.072 44.356L99.2076 44.776C98.9356 44.168 98.5316 43.692 97.9956 43.348C97.4676 42.996 96.8836 42.82 96.2436 42.82C95.3156 42.82 94.5316 43.148 93.8916 43.804ZM106.709 47.044C106.661 46.484 106.433 46.032 106.025 45.688C105.617 45.344 105.125 45.172 104.549 45.172C103.997 45.172 103.521 45.344 103.121 45.688C102.729 46.024 102.497 46.476 102.425 47.044H106.709ZM102.425 47.92C102.497 48.488 102.737 48.944 103.145 49.288C103.553 49.632 104.037 49.804 104.597 49.804C105.029 49.804 105.421 49.704 105.773 49.504C106.125 49.296 106.389 49.012 106.565 48.652L107.453 49C107.189 49.528 106.801 49.948 106.289 50.26C105.785 50.564 105.225 50.716 104.609 50.716C103.713 50.716 102.957 50.412 102.341 49.804C101.733 49.188 101.429 48.416 101.429 47.488C101.429 46.56 101.729 45.792 102.329 45.184C102.929 44.568 103.665 44.26 104.537 44.26C105.417 44.26 106.161 44.56 106.769 45.16C107.377 45.752 107.681 46.5 107.681 47.404C107.681 47.548 107.661 47.72 107.621 47.92H102.425ZM108.817 50.5V42.1H109.957L114.697 49.024V42.1H115.657V50.5H114.505L109.777 43.492V50.5H108.817ZM117.032 43.336C116.904 43.208 116.84 43.052 116.84 42.868C116.84 42.684 116.904 42.532 117.032 42.412C117.16 42.284 117.312 42.22 117.488 42.22C117.672 42.22 117.824 42.284 117.944 42.412C118.072 42.532 118.136 42.684 118.136 42.868C118.136 43.052 118.072 43.208 117.944 43.336C117.824 43.456 117.672 43.516 117.488 43.516C117.312 43.516 117.16 43.456 117.032 43.336ZM117.008 50.5V44.5H117.968V50.5H117.008ZM124.392 47.044C124.344 46.484 124.116 46.032 123.708 45.688C123.3 45.344 122.808 45.172 122.232 45.172C121.68 45.172 121.204 45.344 120.804 45.688C120.412 46.024 120.18 46.476 120.108 47.044H124.392ZM120.108 47.92C120.18 48.488 120.42 48.944 120.828 49.288C121.236 49.632 121.72 49.804 122.28 49.804C122.712 49.804 123.104 49.704 123.456 49.504C123.808 49.296 124.072 49.012 124.248 48.652L125.136 49C124.872 49.528 124.484 49.948 123.972 50.26C123.468 50.564 122.908 50.716 122.292 50.716C121.396 50.716 120.64 50.412 120.024 49.804C119.416 49.188 119.112 48.416 119.112 47.488C119.112 46.56 119.412 45.792 120.012 45.184C120.612 44.568 121.348 44.26 122.22 44.26C123.1 44.26 123.844 44.56 124.452 45.16C125.06 45.752 125.364 46.5 125.364 47.404C125.364 47.548 125.344 47.72 125.304 47.92H120.108ZM129.261 46.768C127.333 46.376 126.369 45.552 126.369 44.296C126.361 43.616 126.613 43.056 127.125 42.616C127.645 42.168 128.305 41.944 129.105 41.944C129.793 41.944 130.417 42.132 130.977 42.508C131.545 42.884 131.949 43.388 132.189 44.02L131.313 44.38C131.121 43.916 130.829 43.552 130.437 43.288C130.045 43.016 129.609 42.88 129.129 42.88C128.609 42.88 128.181 43.012 127.845 43.276C127.509 43.532 127.341 43.864 127.341 44.272C127.341 44.648 127.505 44.956 127.833 45.196C128.161 45.436 128.689 45.632 129.417 45.784C130.361 45.976 131.077 46.288 131.565 46.72C132.061 47.144 132.309 47.664 132.309 48.28C132.309 48.952 132.037 49.512 131.493 49.96C130.957 50.408 130.277 50.632 129.453 50.632C128.741 50.632 128.093 50.44 127.509 50.056C126.925 49.672 126.509 49.156 126.261 48.508L127.161 48.076C127.361 48.58 127.661 48.976 128.061 49.264C128.461 49.552 128.917 49.696 129.429 49.696C129.965 49.696 130.413 49.56 130.773 49.288C131.133 49.016 131.313 48.672 131.313 48.256C131.313 47.888 131.145 47.584 130.809 47.344C130.481 47.104 129.965 46.912 129.261 46.768ZM138.49 47.044C138.442 46.484 138.214 46.032 137.806 45.688C137.398 45.344 136.906 45.172 136.33 45.172C135.778 45.172 135.302 45.344 134.902 45.688C134.51 46.024 134.278 46.476 134.206 47.044H138.49ZM134.206 47.92C134.278 48.488 134.518 48.944 134.926 49.288C135.334 49.632 135.818 49.804 136.378 49.804C136.81 49.804 137.202 49.704 137.554 49.504C137.906 49.296 138.17 49.012 138.346 48.652L139.234 49C138.97 49.528 138.582 49.948 138.07 50.26C137.566 50.564 137.006 50.716 136.39 50.716C135.494 50.716 134.738 50.412 134.122 49.804C133.514 49.188 133.21 48.416 133.21 47.488C133.21 46.56 133.51 45.792 134.11 45.184C134.71 44.568 135.446 44.26 136.318 44.26C137.198 44.26 137.942 44.56 138.55 45.16C139.158 45.752 139.462 46.5 139.462 47.404C139.462 47.548 139.442 47.72 139.402 47.92H134.206ZM146.862 50.5H145.902V41.5H146.862V50.5ZM145.23 49.132C145.678 48.7 145.902 48.152 145.902 47.488C145.902 46.824 145.678 46.276 145.23 45.844C144.79 45.412 144.25 45.196 143.61 45.196C142.97 45.196 142.426 45.412 141.978 45.844C141.538 46.276 141.318 46.824 141.318 47.488C141.318 48.152 141.538 48.7 141.978 49.132C142.426 49.564 142.97 49.78 143.61 49.78C144.25 49.78 144.79 49.564 145.23 49.132ZM145.506 45.184C146.074 45.792 146.358 46.56 146.358 47.488C146.358 48.416 146.074 49.188 145.506 49.804C144.938 50.412 144.238 50.716 143.406 50.716C142.55 50.716 141.826 50.412 141.234 49.804C140.65 49.188 140.358 48.416 140.358 47.488C140.358 46.56 140.65 45.792 141.234 45.184C141.826 44.568 142.55 44.26 143.406 44.26C144.238 44.26 144.938 44.568 145.506 45.184Z" fill="white"/>
</svg>
